<svg width="160" height="173" viewBox="0 0 160 173" fill="none" xmlns="http://www.w3.org/2000/svg">
<g clip-path="url(#clip0_1_2)">
<path d="M116.701 24.5554C116.701 24.5554 137.966 10.3791 146.067 23.5428C154.167 36.7065 155.18 34.6813 154.167 42.7821C153.155 50.8829 151.059 63.2973 136.953 65.0592C128.853 66.0718 123.283 66.5781 123.283 66.5781" fill="white"/>
<path d="M80.7544 10.8854C80.7544 10.8854 78.7292 0.759445 84.8048 0.759445C90.8803 0.759445 90.8803 8.8602 90.8803 11.898" fill="#9EECFF"/>
<path d="M67.5907 161.762C56.4521 163.787 32.6663 165.316 19.9987 152.649C15.9484 148.598 9.8728 140.497 8.8602 123.283C7.84761 106.069 17.9229 94.9307 18.9861 83.7922C21.0113 62.5277 9.8728 43.2884 32.1499 25.0617C56.7559 4.93134 93.9181 6.83501 111.132 19.9987C128.346 33.1625 124.296 56.4521 125.309 67.5907C126.321 78.7292 122.271 109.107 112.145 124.296C102.019 139.485 97.3103 156.355 67.5907 161.762Z" fill="#9EECFF"/>
<path d="M124.964 80.481C128.853 78.7393 135.809 76.0762 137.966 78.2229C140.913 81.1695 135.769 87.4476 123.445 91.5183L124.964 80.481ZM82.7796 156.699C82.7796 156.699 88.8551 169.863 93.4118 167.331C97.9685 164.8 90.8803 151.636 90.8803 151.636M9.87279 131.384C9.87279 131.384 0.759445 131.384 0.759445 136.447C0.759445 141.51 12.9106 140.497 12.9106 140.497M30.631 157.205C30.631 157.205 29.1121 170.875 35.6939 171.382C42.2758 171.888 41.7695 157.205 41.7695 157.205M50.3766 92.9055C50.3766 92.9055 37.2128 86.8299 36.2002 90.8803C35.1876 94.9307 47.3388 99.9937 47.3388 99.9937" fill="#FADAC5"/>
<path d="M114.17 60.5025L113.157 70.9423C113.157 71.3676 116.428 71.641 117.208 71.641C117.694 71.641 118.858 71.8334 118.858 71.8334C119.091 71.722 119.233 71.479 119.233 71.2259L120.246 60.5025H114.17Z" fill="white"/>
<path d="M118.727 62.0214C114.17 61.5151 108.601 63.034 108.094 58.4773C107.527 53.3435 112.145 50.3766 115.183 50.3766C116.195 50.3766 122.342 50.1437 123.283 50.3766C127.334 51.3892 128.539 51.9765 129.359 54.4269C130.371 57.4647 126.291 62.8618 118.727 62.0214Z" fill="#FADAC5"/>
<path d="M119.233 51.3892C117.208 51.3892 114.17 52.4017 114.17 48.3514C114.17 44.301 117.208 42.2758 120.246 42.2758C123.283 42.2758 125.309 43.2884 126.321 45.3136C127.222 47.1261 125.309 51.3892 119.233 51.3892Z" fill="#B5A79C"/>
<path d="M51.3892 61.5151C51.3892 61.5151 47.3388 52.4017 48.3514 43.2884C49.364 34.1751 57.4647 26.0743 63.5403 25.0617C69.6158 24.0491 76.704 18.9861 88.8551 26.0743C101.006 33.1625 101.006 43.2884 101.006 48.3514C101.006 53.4143 98.9811 66.5781 88.8551 70.6284C78.7292 74.6788 69.6158 74.6788 62.5277 72.6536C55.4395 70.6284 51.3892 61.5151 51.3892 61.5151Z" fill="white"/>
<path d="M36.7065 26.5806C36.7065 26.5806 27.5932 15.4421 32.6562 10.3791C38.2254 6.83501 44.8073 16.4547 44.8073 21.5176" fill="#9EECFF"/>
<path d="M39.238 20.7582C38.9849 20.7582 38.7317 20.6265 38.59 20.3936L35.5522 15.3307C35.3395 14.9763 35.4509 14.5003 35.8155 14.2877C36.1699 14.0751 36.6458 14.1864 36.8584 14.551L39.8962 19.614C40.1089 19.9684 39.9975 20.4443 39.6329 20.6569C39.5114 20.7278 39.3798 20.7683 39.238 20.7683V20.7582ZM47.6324 99.295C42.8327 97.3002 36.3521 93.4219 36.9394 91.0626C37.0103 90.7993 37.1622 90.6171 37.4356 90.4854C39.5418 89.4829 46.2958 91.8625 50.0525 93.5941L50.6905 92.2169C49.6272 91.7309 40.2101 87.478 36.7774 89.1184C36.0889 89.4424 35.6332 89.9892 35.461 90.6981C34.3472 95.1535 44.9187 99.8114 47.0451 100.692L47.6324 99.295ZM89.1387 71.3373C99.133 67.3375 101.766 54.5586 101.766 48.3514C101.766 43.2783 101.766 32.727 89.2399 25.4161C79.4178 19.6848 72.765 21.6796 67.4286 23.2795C66.011 23.7048 64.6744 24.0997 63.4188 24.3124C56.9584 25.3857 48.6349 33.8814 47.602 43.2074C46.5793 52.422 50.5284 61.4442 50.7006 61.829C50.8727 62.2138 54.9839 71.2866 62.3252 73.3928C64.9579 74.1421 68.34 74.7598 72.3397 74.7598C77.109 74.7598 82.7796 73.889 89.1387 71.3474V71.3373ZM49.1108 43.3795C50.0728 34.6915 57.728 26.8034 63.6719 25.8212C65.0288 25.5984 66.4059 25.1832 67.8641 24.7478C73.1903 23.158 79.2254 21.3455 88.4704 26.7426C100.247 33.608 100.247 43.2074 100.247 48.3615C100.247 54.2042 97.8065 66.2439 88.5716 69.9297C77.2609 74.456 68.2792 73.5143 62.7302 71.9347C56.0775 70.031 52.1182 61.3126 52.0777 61.2214C52.0271 61.1202 48.1185 52.1891 49.1007 43.3897L49.1108 43.3795ZM65.5655 47.3489C66.5781 46.3363 67.5907 45.3237 68.6033 42.2859C69.6158 39.2481 68.6033 37.223 66.5781 36.2104C64.5529 35.1978 58.4773 37.223 57.4647 40.2607C56.4521 43.2985 57.5052 46.2958 58.4773 47.3489C59.419 48.3716 64.5529 48.3615 65.5655 47.3489ZM154.917 42.8834C154.066 49.7082 152.284 63.9149 137.044 65.8186C132.326 66.4059 128.437 66.8312 126.027 67.0742C126.038 67.2261 126.048 67.378 126.058 67.5299C126.321 70.4259 126.25 74.5168 125.835 79.2659C130.017 77.4938 136.224 75.4281 138.492 77.6964C139.424 78.6178 139.728 79.8228 139.394 81.1797C138.432 85.0478 132.498 89.25 124.093 92.1056C121.967 103.852 118.22 116.539 112.762 124.731C111.071 127.263 109.512 129.885 108.003 132.427C103.639 139.758 99.4064 146.857 92.1562 152.497C93.908 156.041 98.1204 165.59 93.7662 168.01C93.2599 168.293 92.7334 168.435 92.1764 168.435C91.7917 168.435 91.4069 168.374 91.0018 168.243C87.4679 167.088 83.9339 160.739 82.6176 158.137C78.4558 159.97 73.5751 161.468 67.7223 162.531C65.4845 162.937 59.5102 163.878 52.2296 163.878C49.0602 163.878 45.6477 163.696 42.1745 163.21C41.7695 166.055 40.9291 169.184 39.1671 170.875C38.2659 171.736 37.2128 172.171 36.018 172.171C35.8863 172.171 35.7547 172.171 35.6231 172.151C34.2257 172.04 33.0409 171.422 32.1195 170.298C29.9728 167.706 29.669 162.947 29.7095 159.919C25.9325 158.329 22.4087 156.162 19.4519 153.195C16.2319 149.975 13.6801 146.006 11.8068 141.328C11.4322 141.338 10.9968 141.348 10.5006 141.348C7.69572 141.348 3.25043 141.024 1.18474 139.12C0.384787 138.391 -0.0101242 137.49 -0.0101242 136.457C-0.0101242 131.708 6.41985 130.837 8.9007 130.675C8.51592 128.346 8.24252 125.906 8.09063 123.344C7.47295 112.813 10.936 104.52 13.9839 97.1989C15.9484 92.4903 17.8014 88.0552 18.2166 83.7314C18.7836 77.7267 18.2976 71.8233 17.8115 66.1123C16.5863 51.5309 15.4319 37.7596 31.6537 24.4845C32.2207 24.0187 32.8081 23.5833 33.3852 23.1378C31.0563 19.2393 28.5855 13.3662 32.0992 9.85254L32.2309 9.75128C34.0839 8.57667 36.2002 8.56655 38.3368 9.75128C40.7873 11.098 42.9036 13.7915 44.1997 16.5154C55.5104 10.9968 68.0767 8.76907 79.7519 9.26524C79.5494 7.14892 79.5393 3.66559 81.1999 1.6404C82.0708 0.567055 83.2859 0.0303802 84.7946 0.0303802C90.8904 0.0303802 91.5486 7.13879 91.6195 10.774C99.3861 12.4448 106.312 15.4016 111.588 19.4317C113.4 20.8189 114.97 22.3277 116.347 23.9073C117.491 23.158 129.46 15.5129 138.877 17.5685C141.216 18.0849 143.201 19.1684 144.821 20.7987C148.527 17.9027 151.312 18.7127 152.132 19.5329C153.145 20.5455 154.157 22.5707 154.157 24.5959C154.157 25.8009 152.375 28.0691 150.927 29.7196C151.231 30.1652 151.514 30.5803 151.768 30.955C155.241 36.0484 155.686 36.7065 154.907 42.9137L154.917 42.8834ZM81.3012 9.32599C84.3086 9.51839 87.2552 9.8728 90.1006 10.4196C89.9589 6.00469 89.0475 1.51889 84.8048 1.51889C83.7618 1.51889 82.972 1.86318 82.3847 2.57199C81.0075 4.2529 81.0987 7.47295 81.3012 9.32599ZM11.2499 139.819C10.3993 137.439 9.70065 134.888 9.18423 132.174C7.18942 132.295 1.51889 132.933 1.51889 136.447C1.51889 137.055 1.75179 137.561 2.22771 137.996C3.9795 139.606 8.45516 139.88 11.2499 139.819ZM90.9917 153.357C88.926 154.856 86.6072 156.243 84.0048 157.479C85.544 160.496 88.7539 165.883 91.4879 166.774C92.0651 166.967 92.5714 166.926 93.0473 166.663C95.6598 165.215 93.4017 158.228 91.0018 153.357H90.9917ZM124.549 67.6615C124.407 66.0515 124.357 64.239 124.347 62.2037C123.243 62.5783 122.048 62.8011 120.792 62.8517C120.772 62.8517 120.772 62.8517 120.762 62.8517H120.782L119.982 71.2866C119.982 71.7625 119.679 72.2587 119.192 72.5017L118.97 72.6131L118.727 72.5726C118.301 72.5017 117.512 72.3904 117.198 72.3904C115.75 72.3904 112.388 72.2486 112.388 70.9322L113.188 62.6087C110.342 62.4872 107.689 61.8594 107.325 58.5482C107.001 55.642 108.196 53.627 109.259 52.4423C110.413 51.1563 111.993 50.2145 113.573 49.8095C113.461 49.3741 113.4 48.8982 113.4 48.3311C113.4 43.6327 116.944 41.4961 120.235 41.4961C121.299 41.4961 122.23 41.6277 123.081 41.8606C121.562 34.0535 118.2 26.3477 110.666 20.586C102.495 14.3383 90.0601 10.8449 76.7445 10.8449C66.092 10.8449 54.8725 13.0928 44.8174 17.9229C45.2933 19.2089 45.5566 20.4544 45.5566 21.4974H44.0377C44.0377 18.3583 41.1721 12.9916 37.6077 11.0373C35.9876 10.1462 34.4788 10.1158 33.122 10.9461C28.7374 15.5028 37.1926 25.9629 37.2837 26.0743L36.1091 27.0363C35.9977 26.9046 35.1876 25.892 34.2054 24.3934C33.6789 24.7984 33.1422 25.1933 32.6258 25.6186C17.0217 38.3874 18.1457 51.7739 19.3405 65.9401C19.8266 71.7119 20.3228 77.6862 19.7456 83.8327C19.3102 88.3792 17.4166 92.9258 15.4016 97.7356C12.4144 104.895 9.02222 113.016 9.61965 123.202C10.3791 136.042 13.9434 145.479 20.5354 152.071C23.2087 154.745 26.3781 156.76 29.7804 158.258C29.8209 157.59 29.8614 157.155 29.8715 157.074L31.3803 157.246C31.3803 157.327 30.469 165.863 33.2941 169.275C33.9624 170.075 34.7624 170.501 35.7446 170.582C36.6559 170.642 37.4356 170.369 38.114 169.721C41.2835 166.683 41.0101 157.286 40.9999 157.185L42.5188 157.134C42.5188 157.317 42.5796 159.241 42.3467 161.661C53.5359 163.21 64.2896 161.549 67.4388 160.972C91.8322 156.537 99.052 144.416 106.697 131.597C108.216 129.045 109.796 126.402 111.497 123.84C121.4 108.975 125.572 78.9925 124.539 67.621L124.549 67.6615ZM120.246 43.0353C117.795 43.0353 114.929 44.4326 114.929 48.3514C114.929 49.3235 115.122 49.9816 115.496 50.3361C116.043 50.8424 117.107 50.7613 118.129 50.6905C118.514 50.6601 118.889 50.6297 119.233 50.6297C123.172 50.6297 124.752 48.7564 125.248 47.9463C125.835 46.9945 125.865 46.1034 125.633 45.6477C124.752 43.8858 122.99 43.0251 120.235 43.0251L120.246 43.0353ZM117.208 70.8816C117.552 70.8816 118.129 70.9525 118.534 71.0132L119.273 62.8112C119.061 62.8011 118.858 62.8011 118.646 62.7808C117.552 62.6593 116.367 62.6593 115.213 62.6593C115.051 62.6593 114.889 62.6593 114.727 62.6593L113.967 70.5272C114.747 70.7095 116.519 70.8816 117.218 70.8816H117.208ZM125.683 80.9772C125.703 80.7443 125.005 86.8603 124.407 90.3842C132.822 87.397 137.257 83.5188 137.936 80.805C138.138 79.9747 137.976 79.3064 137.429 78.7596C135.88 77.2103 130.27 78.9621 125.683 80.9772ZM127.587 58.2444C128.569 57.0293 128.964 55.6623 128.64 54.67C127.992 52.7258 127.253 52.1891 123.638 51.2575C122.544 51.7739 121.106 52.1587 119.233 52.1587C118.919 52.1587 118.585 52.1891 118.241 52.2094C117.836 52.2397 117.42 52.2701 117.005 52.2701C116.084 52.2701 115.172 52.1182 114.454 51.4499C114.383 51.3892 114.342 51.3081 114.281 51.2373C113.046 51.4803 111.547 52.1891 110.403 53.4751C109.553 54.4269 108.591 56.0572 108.854 58.3963C109.148 61.0088 111.345 61.1404 115.223 61.1404C116.408 61.1404 117.643 61.1404 118.818 61.2721C122.453 61.6771 125.744 60.543 127.597 58.2444H127.587ZM150.522 31.7752C149.287 29.9627 147.596 27.4919 145.419 23.9479C143.809 21.3252 141.5 19.6646 138.563 19.0266C130.139 17.1837 118.97 24.0187 117.329 25.0617C121.501 30.3576 123.628 36.4939 124.711 42.5593C125.703 43.1365 126.473 43.9365 127 44.9794C127.516 46.0123 127.344 47.4603 126.544 48.7564C126.321 49.1108 125.936 49.6272 125.339 50.1538C128.022 50.9537 129.288 51.8043 130.078 54.194C130.584 55.7028 130.088 57.566 128.772 59.2064C127.992 60.1683 127 60.948 125.865 61.5455C125.865 62.9935 125.896 64.3301 125.946 65.5553C128.356 65.3123 132.194 64.887 136.862 64.3099C150.937 62.5479 152.547 49.6272 153.418 42.691C154.127 37.0508 153.924 36.747 150.532 31.7752H150.522Z" fill="black"/>
<path d="M64.0466 40.7569C64.0466 40.7569 64.0466 41.7695 63.034 41.7695H61.0088C59.9962 41.7695 59.9962 39.7443 59.9962 39.7443C59.9962 39.7443 61.0088 37.7191 62.0214 37.7191C63.034 37.7191 64.0466 37.7191 64.0466 38.7317V40.7569Z" fill="white"/>
<path d="M79.3773 78.6887C79.8329 80.5519 79.8329 82.3847 79.4076 84.1364C79.357 84.3288 79.3266 84.5921 79.438 84.7643C79.4988 84.8655 79.6 84.9263 79.7418 84.9567C79.9241 84.9972 80.1063 85.0478 80.2886 85.0984C80.8961 85.2706 81.4733 85.4326 82.1011 85.2503C83.4378 84.8655 83.7415 84.987 84.42 86.1616C84.6529 86.5667 84.8554 86.992 85.0579 87.397C85.1288 87.5489 85.2098 87.7109 85.2908 87.8628C85.5237 88.3286 85.625 89.007 84.7744 89.564C84.0858 90.0196 83.4276 89.969 82.8707 89.4121C82.6682 89.2095 82.5163 88.926 82.4454 88.6526C82.2834 87.9742 81.8885 87.64 81.1392 87.5995C80.886 87.5793 80.6329 87.5185 80.3898 87.4679C80.2278 87.4274 80.0658 87.3869 79.9038 87.3666C79.2254 87.2654 78.9115 87.478 78.7494 88.1767C78.557 88.9868 78.4355 89.8374 78.3343 90.6576C78.1824 91.8119 78.0204 93.0068 77.6255 94.151C77.5141 94.475 77.585 94.7889 77.828 95.0016C78.233 95.3661 80.4202 95.5788 80.9569 95.3054C81.5543 95.0016 82.01 94.9206 82.3745 95.0522C82.7289 95.1737 83.0023 95.4775 83.2555 96.0142C83.62 96.7939 83.701 97.6141 83.4985 98.4647C83.377 98.9912 83.1644 99.3254 82.8505 99.4874C82.5365 99.6494 82.1518 99.619 81.6657 99.4064C81.1999 99.2038 80.9265 98.8393 80.8556 98.3229C80.7848 97.8166 80.5114 97.5837 79.9241 97.5229C79.681 97.4926 79.438 97.4521 79.195 97.4014C78.9823 97.3609 78.7494 97.3204 78.5368 97.29C77.9191 97.2192 77.6356 97.2394 77.4635 97.3812C77.2913 97.5229 77.2002 97.8166 77.1293 98.4849C77.0787 98.971 77.0584 99.4773 77.0382 99.9633C76.9875 101.158 76.9369 102.383 76.4002 103.568C76.2686 103.842 76.2686 104.125 76.3901 104.348C76.5116 104.581 76.7546 104.722 77.0787 104.763C77.4027 104.803 77.7267 104.905 78.0406 105.006C78.8406 105.259 79.6 105.492 80.3696 104.803C80.5215 104.662 80.7949 104.702 80.9468 104.733C81.605 104.864 82.2733 105.725 82.3442 106.535C82.415 107.375 81.8277 108.256 81.0075 108.56C80.2582 108.834 79.6203 108.56 79.2355 107.841C78.8001 107.001 78.1318 107.092 77.4331 107.193C77.2002 107.224 76.9572 107.264 76.7243 107.254C76.0458 107.254 75.8433 107.821 75.6509 108.651L75.6307 108.753C75.5091 109.259 75.4079 109.775 75.3066 110.272C75.1952 110.849 75.0737 111.456 74.9218 112.033L74.9016 112.094C74.6079 113.188 74.456 113.795 74.6282 114.059C74.8105 114.332 75.418 114.393 76.5319 114.514H76.6635C77.3926 114.616 78.0204 114.686 78.3242 113.816C78.4457 113.492 78.7697 113.36 79.1747 113.471C80.3392 113.795 81.0582 114.433 81.3113 115.385C81.5847 116.438 81.3113 117.491 80.5114 118.342C80.0557 118.838 79.4279 118.98 78.7494 118.737C78.152 118.524 77.8584 118.099 77.909 117.491C77.9394 117.167 77.8887 116.934 77.7571 116.813C77.6153 116.661 77.3419 116.61 76.9166 116.651C76.6129 116.681 76.299 116.671 75.9952 116.671C75.7319 116.671 75.4585 116.671 75.1952 116.681C74.0105 116.762 73.8991 116.863 73.7067 118.018C73.4637 119.456 73.2409 120.934 73.0283 122.352L72.8764 123.385C72.7448 124.255 72.7144 124.741 72.9068 125.005C73.089 125.258 73.5447 125.369 74.375 125.491C74.6687 125.531 74.9826 125.582 75.2965 125.602C75.661 125.633 75.9446 125.491 76.218 125.126C76.2686 125.055 76.3091 124.944 76.3496 124.822C76.4407 124.539 76.5825 124.104 77.1293 124.215C77.6558 124.326 77.909 124.792 78.1216 125.217L78.1723 125.309C78.6887 126.281 78.3748 127.982 77.5445 128.751C77.1799 129.086 76.7546 129.217 76.3901 129.106C76.0256 128.994 75.7623 128.66 75.6408 128.174C75.4686 127.496 75.256 127.344 74.6484 127.486C74.2333 127.587 73.7776 127.577 73.3624 127.556C72.6131 127.516 72.3498 127.901 72.1068 128.61C71.7524 129.663 71.722 130.787 71.6917 131.86C71.6613 132.761 71.641 133.703 71.4284 134.604C71.3778 134.797 71.4588 134.989 71.6512 135.131C72.198 135.536 74.4763 135.748 74.9826 135.343C75.5193 134.908 75.9344 135.09 76.2787 135.303C77.3217 135.941 77.4938 137.146 76.7445 138.452C76.4205 139.019 76.0053 139.343 75.58 139.384C75.337 139.404 74.9623 139.343 74.5877 138.898C73.7371 137.875 72.7549 137.895 71.641 138.027C70.4664 138.158 70.2842 138.341 70.1424 139.566C70.0918 139.981 70.0513 140.406 70.0108 140.832C69.9601 141.358 69.9095 141.905 69.8386 142.431C69.8184 142.604 69.788 142.766 69.7677 142.918C69.6361 143.829 69.5551 144.376 69.7779 144.679C70.031 145.014 70.7196 145.155 72.1676 145.348C72.8359 145.429 73.2511 145.449 73.4333 144.7C73.5143 144.366 73.7067 144.123 73.9599 144.042C74.213 143.961 74.4966 144.062 74.7598 144.325C75.3471 144.892 75.58 145.783 75.3876 146.695C75.1952 147.606 74.6282 148.315 73.8789 148.588C73.2814 148.811 72.7853 148.629 72.4916 148.092L72.4612 148.041C72.2688 147.697 72.117 147.413 71.722 147.393C71.3676 147.373 71.0234 147.343 70.6689 147.312C70.2943 147.282 69.9196 147.251 69.5348 147.231C69.0488 147.201 68.502 147.302 68.4615 147.586C68.3906 148.031 68.3501 148.335 68.3197 148.568C68.1881 149.277 68.097 149.874 68.0767 150.482C68.0565 151.241 68.1881 151.636 68.9982 151.707C69.2311 151.727 69.4538 151.757 69.6665 151.788C70.3854 151.899 70.9828 152.082 71.4588 152.335C74.132 153.732 77.0483 153.935 79.2861 153.955C84.0858 154.005 88.8754 154.35 93.3308 154.704C97.0571 155.008 100.783 155.788 104.378 156.537C106.495 156.982 108.682 157.438 110.859 157.793C115.689 158.592 122.048 159.676 128.377 161.063L129.075 161.215C131.941 161.843 134.898 162.501 137.895 162.653C138.685 162.694 139.495 162.714 140.275 162.734C142.725 162.805 145.257 162.876 147.707 163.504C147.818 163.534 147.95 163.544 148.122 163.544H148.294L148.274 163.757C148.446 163.747 148.629 163.747 148.811 163.757L148.983 161.944C149.317 158.309 149.661 154.562 150.147 150.877C150.623 147.272 151.099 143.363 151.555 139.586C152.233 133.986 152.942 128.194 153.702 122.929C153.924 121.43 154.208 119.922 154.481 118.453C154.907 116.215 155.342 113.897 155.545 111.578C155.757 109.148 156.304 106.738 156.82 104.398C157.266 102.383 157.732 100.287 157.995 98.2115C158.076 97.7963 158.157 97.4014 158.248 97.0065C158.43 96.1154 158.633 95.194 158.785 94.2928C159.028 92.8954 159.23 91.4575 159.413 90.1918C159.676 88.359 159.463 88.0349 157.803 87.6805C157.367 87.5894 156.932 87.4881 156.496 87.3869C155.241 87.0932 153.935 86.7996 152.618 86.6882C150.401 86.4958 148.629 86.2021 147.049 85.7363L146.441 85.5541C145.074 85.149 143.657 84.7339 142.249 84.3997C138.32 83.4783 134.24 83.4479 130.29 83.4175C129.572 83.4175 128.853 83.4074 128.134 83.3973C126.959 83.377 125.795 83.377 124.62 83.3669C122.028 83.3669 119.344 83.3466 116.722 83.1846C109.117 82.7087 102.13 81.7164 95.3661 80.157C94.5662 79.9747 93.7865 79.7013 92.9865 79.3165L92.8245 79.2456C91.8119 78.7697 90.7689 78.2634 89.6551 78.1216C87.4881 77.8381 85.3414 77.3318 83.2555 76.8356C82.6378 76.6838 82.01 76.542 81.3822 76.4002C80.5012 76.1977 79.9342 76.1268 79.6608 76.3496C79.3874 76.5724 79.3367 77.1496 79.3367 78.0811C79.3367 78.2634 79.3368 78.4862 79.3874 78.6786L79.3773 78.6887Z" fill="white"/>
<path d="M83.4884 98.4748C83.3669 99.0013 83.1542 99.3355 82.8403 99.4975C82.5264 99.6595 82.1416 99.6291 81.6556 99.4165C81.1898 99.214 80.9164 98.8494 80.8455 98.333C80.7746 97.8267 80.5012 97.5938 79.9139 97.5331C79.6709 97.5027 79.4279 97.4622 79.1849 97.4116C78.9722 97.3711 78.7393 97.3305 78.5267 97.3002C77.909 97.2293 77.6255 97.2495 77.4533 97.3913C77.2812 97.5331 77.1901 97.8267 77.1192 98.495C77.0685 98.9811 77.0483 99.4874 77.028 99.9734C76.9774 101.168 76.9268 102.394 76.3901 103.578C76.2585 103.852 76.2585 104.135 76.38 104.358C76.5015 104.591 76.7445 104.733 77.0685 104.773C77.3926 104.814 77.7166 104.915 78.0305 105.016C78.8305 105.269 79.5899 105.502 80.3595 104.814C80.5114 104.672 80.7848 104.712 80.9367 104.743C81.5948 104.874 82.2631 105.735 82.334 106.545C82.4049 107.386 81.8176 108.267 80.9974 108.57C80.2481 108.844 79.6102 108.57 79.2254 107.851C78.79 107.011 78.1216 107.102 77.4229 107.203C77.1901 107.234 76.947 107.274 76.7141 107.264C76.0357 107.264 75.8332 107.831 75.6408 108.661L75.6205 108.763C75.499 109.269 75.3978 109.785 75.2965 110.282C75.1851 110.859 75.0636 111.466 74.9117 112.044L74.8915 112.104C74.5978 113.198 74.4459 113.805 74.6181 114.069C74.8003 114.342 75.4079 114.403 76.5217 114.524H76.6534C77.3824 114.626 78.0103 114.697 78.314 113.826C78.4254 113.502 78.7596 113.37 79.1646 113.481C80.3291 113.805 81.048 114.443 81.3012 115.395C81.5746 116.448 81.3012 117.501 80.5012 118.352C80.0456 118.848 79.4178 118.99 78.7393 118.747C78.1419 118.534 77.8482 118.109 77.8989 117.501C77.9292 117.177 77.8786 116.945 77.747 116.823C77.6052 116.671 77.3318 116.62 76.9065 116.661C76.6027 116.691 76.2888 116.681 75.9851 116.681C75.7218 116.681 75.4484 116.681 75.1851 116.691C74.0004 116.772 73.889 116.874 73.6966 118.028C73.4536 119.466 73.2308 120.944 73.0182 122.362L72.8663 123.395C72.7346 124.266 72.7043 124.752 72.8967 125.015C73.0789 125.268 73.5346 125.379 74.3649 125.501C74.6586 125.541 74.9725 125.592 75.2864 125.612C75.6509 125.643 75.9344 125.501 76.2078 125.136C76.2585 125.066 76.299 124.954 76.3395 124.833C76.4306 124.549 76.5724 124.114 77.1192 124.225C77.6457 124.336 77.8989 124.802 78.1115 125.228L78.1621 125.319C78.6786 126.291 78.3647 127.992 77.5343 128.761C77.1698 129.096 76.7445 129.227 76.38 129.116C76.0154 129.004 75.7522 128.67 75.6307 128.184C75.4585 127.506 75.2459 127.354 74.6383 127.496C74.2232 127.597 73.7675 127.587 73.3523 127.567C72.603 127.526 72.3397 127.911 72.0967 128.62C71.7423 129.673 71.7119 130.797 71.6815 131.87C71.6512 132.771 71.6309 133.713 71.4183 134.614C71.3676 134.807 71.4486 134.999 71.641 135.141C72.1878 135.546 74.4662 135.758 74.9725 135.353C75.5091 134.918 75.9243 135.1 76.2686 135.313C77.3116 135.951 77.4837 137.156 76.7344 138.462C76.4104 139.029 75.9952 139.353 75.5699 139.394C75.3269 139.414 74.9522 139.353 74.5776 138.908C73.727 137.885 72.7448 137.905 71.6309 138.037C70.4563 138.168 70.274 138.351 70.1323 139.576C70.0816 139.991 70.0411 140.416 70.0006 140.842C69.95 141.368 69.8994 141.915 69.8285 142.442C69.8082 142.614 69.7779 142.776 69.7576 142.928C69.626 143.839 69.545 144.386 69.7677 144.69C70.0209 145.024 70.7095 145.166 72.1575 145.358C72.8258 145.439 73.2409 145.459 73.4232 144.71C73.5042 144.376 73.6966 144.133 73.9498 144.052C74.2029 143.971 74.4864 144.072 74.7497 144.335C75.337 144.902 75.5699 145.793 75.3775 146.705C75.1851 147.616 74.6181 148.325 73.8687 148.598C73.2713 148.821 72.7751 148.639 72.4815 148.102L72.4511 148.051C72.2587 147.707 72.1068 147.424 71.7119 147.403C71.3575 147.383 71.0132 147.353 70.6588 147.322C70.2842 147.292 69.9095 147.262 69.5247 147.241C69.0387 147.211 68.4919 147.312 68.4514 147.596C68.3805 148.041 68.34 148.345 68.3096 148.578C68.178 149.287 68.0868 149.884 68.0666 150.492C68.0463 151.251 68.178 151.646 68.988 151.717C69.2209 151.737 69.4437 151.768 69.6564 151.798C70.3753 151.909 70.9727 152.092 71.4486 152.345C74.1219 153.742 77.0382 153.945 79.276 153.965C84.0757 154.016 88.8653 154.36 93.3207 154.714C97.047 155.018 100.773 155.798 104.368 156.547C106.484 156.993 108.672 157.448 110.849 157.803C115.679 158.603 122.038 159.686 128.367 161.073L129.065 161.225C131.931 161.853 134.888 162.511 137.885 162.663C138.675 162.704 139.485 162.724 140.265 162.744C142.715 162.815 145.247 162.886 147.697 163.514C147.808 163.544 147.94 163.554 148.112 163.554H148.284L148.264 163.767C148.436 163.757 148.618 163.757 148.801 163.767L148.973 161.954C149.307 158.319 149.651 154.572 150.137 150.887C150.613 147.282 151.089 143.373 151.545 139.596C152.223 133.997 152.932 128.205 153.692 122.939C153.914 121.44 154.198 119.932 154.471 118.463C154.897 116.226 155.332 113.907 155.534 111.588C155.747 109.158 156.294 106.748 156.81 104.409C157.256 102.394 157.722 100.297 157.985 98.2216C158.066 97.8065 158.147 97.4116 158.238 97.0166C158.42 96.1256 158.623 95.2041 158.775 94.3029C159.018 92.9055 159.22 91.4676 159.403 90.2019C159.666 88.3691 159.453 88.0451 157.793 87.6907C157.357 87.5995 156.922 87.4983 156.486 87.397C155.231 87.1033 153.924 86.8097 152.608 86.6983C150.39 86.516 148.618 86.2123 147.039 85.7465L146.431 85.5642C145.064 85.1592 143.647 84.744 142.239 84.4098C138.31 83.4884 134.229 83.458 130.28 83.4276C129.561 83.4276 128.842 83.4175 128.124 83.4074C126.949 83.3871 125.784 83.3871 124.61 83.377C122.018 83.377 119.334 83.3568 116.712 83.1947C109.107 82.7188 102.12 81.7265 95.356 80.1671C94.556 79.9848 93.7763 79.7114 92.9764 79.3266L92.8144 79.2557C91.8018 78.7798 90.7588 78.2735 89.645 78.1318C87.478 77.8482 85.3313 77.3419 83.2454 76.8458C82.6277 76.6939 81.9999 76.5521 81.3721 76.4104C80.4911 76.2078 79.9241 76.137 79.6507 76.3597C79.3773 76.5825 79.3266 77.1597 79.3266 78.0913C79.3266 78.2735 79.3266 78.4963 79.3773 78.6887C79.8329 80.5519 79.8329 82.3847 79.4076 84.1364C79.357 84.3288 79.3266 84.5921 79.438 84.7643C79.4988 84.8655 79.6 84.9263 79.7418 84.9567C79.9241 84.9972 80.1063 85.0478 80.2886 85.0984C80.8961 85.2706 81.4733 85.4326 82.1011 85.2503C83.4378 84.8655 83.7415 84.987 84.42 86.1616C84.6529 86.5667 84.8554 86.992 85.0579 87.397C85.1288 87.5489 85.2098 87.7109 85.2908 87.8628C85.5237 88.3286 85.625 89.007 84.7744 89.5639C84.0858 90.0196 83.4276 89.969 82.8707 89.4121C82.6682 89.2095 82.5163 88.926 82.4454 88.6526C82.2834 87.9742 81.8885 87.64 81.1392 87.5995C80.886 87.5793 80.6329 87.5185 80.3899 87.4679C80.2278 87.4274 80.0658 87.3869 79.9038 87.3666C79.2254 87.2654 78.9115 87.478 78.7494 88.1767C78.5571 88.9868 78.4355 89.8374 78.3343 90.6576C78.1824 91.8119 78.0204 93.0068 77.6255 94.151C77.5141 94.475 77.585 94.7889 77.828 95.0016C78.233 95.3661 80.4202 95.5788 80.9569 95.3054C81.5543 95.0016 82.01 94.9206 82.3745 95.0522C82.7289 95.1737 83.0023 95.4775 83.2555 96.0142" fill="white"/>
<path d="M147.707 164.344L147.727 164.061C147.667 164.061 147.616 164.04 147.565 164.03C145.176 163.412 142.675 163.342 140.254 163.271C139.465 163.25 138.655 163.23 137.865 163.19C134.827 163.038 131.84 162.38 128.964 161.742L128.265 161.59C121.937 160.203 115.588 159.119 110.778 158.319C108.591 157.955 106.403 157.499 104.277 157.053C100.692 156.304 96.9863 155.524 93.2903 155.231C88.845 154.866 84.0656 154.532 79.2861 154.481C76.9977 154.461 74.0105 154.248 71.236 152.8C70.8006 152.578 70.2639 152.416 69.5956 152.304C69.3931 152.274 69.1804 152.244 68.9577 152.223C67.6919 152.102 67.5502 151.271 67.5704 150.471C67.5907 149.834 67.6818 149.206 67.8236 148.477C67.8438 148.264 67.8843 147.96 67.9653 147.505C68.0463 146.968 68.664 146.664 69.5652 146.725C69.95 146.745 70.3247 146.776 70.7094 146.806C71.0537 146.836 71.398 146.867 71.7524 146.887C72.4207 146.927 72.684 147.413 72.9068 147.798C73.1093 148.163 73.3422 148.244 73.7067 148.112C74.294 147.9 74.7396 147.322 74.9016 146.583C75.0636 145.834 74.8813 145.125 74.4155 144.679C74.2839 144.548 74.1624 144.507 74.1118 144.517C74.051 144.538 73.97 144.629 73.9295 144.801C73.6358 146.026 72.6739 145.905 72.1068 145.834C70.5373 145.631 69.7576 145.479 69.3728 144.963C69.0285 144.497 69.1197 143.869 69.2614 142.826L69.3323 142.34C69.4032 141.814 69.4538 141.277 69.5045 140.761C69.545 140.335 69.5855 139.91 69.6361 139.485C69.8082 138.037 70.1728 137.662 71.5803 137.51C72.7448 137.379 73.9599 137.348 74.9725 138.563C75.1547 138.786 75.3471 138.877 75.5294 138.867C75.7825 138.847 76.0661 138.594 76.299 138.189C76.9065 137.136 76.8053 136.214 76.0053 135.728C75.6914 135.536 75.5496 135.505 75.2864 135.728C74.5472 136.326 72.0056 136.032 71.3373 135.526C70.9828 135.262 70.831 134.878 70.9221 134.483C71.1246 133.632 71.1449 132.721 71.1752 131.84C71.2056 130.716 71.236 129.561 71.6208 128.437C71.8739 127.678 72.2486 126.989 73.3827 127.04C73.7675 127.06 74.1725 127.07 74.5269 126.989C75.6408 126.726 75.9547 127.384 76.1268 128.053C76.1673 128.235 76.2787 128.539 76.5319 128.62C76.7141 128.68 76.9673 128.589 77.1901 128.377C77.8482 127.769 78.1216 126.311 77.7065 125.552L77.6558 125.46C77.4432 125.045 77.2812 124.772 77.0078 124.721C76.8863 124.741 76.8356 124.903 76.8053 124.984C76.7546 125.147 76.704 125.298 76.5926 125.44C76.218 125.936 75.7623 126.159 75.2256 126.119C74.9016 126.088 74.5776 126.048 74.2738 125.997C73.4232 125.876 72.7954 125.744 72.4714 125.309C72.1575 124.863 72.2182 124.205 72.3498 123.324L72.5017 122.291C72.7144 120.863 72.9371 119.385 73.1802 117.947C73.4131 116.57 73.727 116.286 75.1345 116.185C75.4079 116.165 75.6813 116.165 75.9547 116.175C76.2585 116.175 76.5521 116.175 76.8458 116.155C77.2204 116.124 77.747 116.114 78.0913 116.469C78.3242 116.712 78.4254 117.066 78.3849 117.552C78.3545 117.927 78.5064 118.149 78.8811 118.281C79.3671 118.453 79.7823 118.362 80.1063 118.018C80.7746 117.299 81.0177 116.418 80.7848 115.537C80.5822 114.767 79.9949 114.251 79.0026 113.978C78.9216 113.957 78.7899 113.927 78.7596 114.008C78.3242 115.253 77.3116 115.132 76.5622 115.051H76.4306C75.1244 114.899 74.4662 114.818 74.1523 114.352C73.8485 113.897 74.0105 113.289 74.3548 111.973C74.5269 111.335 74.6383 110.747 74.7497 110.18C74.851 109.654 74.9522 109.137 75.0737 108.631C75.2661 107.831 75.5294 106.758 76.6534 106.758C76.6736 106.758 76.6939 106.758 76.704 106.758C76.8964 106.758 77.109 106.727 77.3014 106.697C78.0305 106.596 79.0228 106.454 79.6304 107.608C79.8937 108.115 80.2683 108.267 80.7746 108.084C81.3822 107.862 81.8277 107.193 81.7771 106.576C81.7163 105.948 81.1797 105.3 80.7848 105.219C80.6835 105.198 80.6126 105.198 80.6025 105.209C79.6709 106.059 78.6482 105.745 77.8381 105.482C77.5445 105.391 77.2407 105.3 76.9572 105.259C76.4711 105.198 76.0964 104.955 75.8939 104.571C75.7015 104.206 75.7015 103.771 75.8939 103.345C76.3901 102.262 76.4407 101.077 76.4812 99.9329C76.5015 99.4367 76.5217 98.9203 76.5724 98.4241C76.6534 97.6951 76.7546 97.2495 77.0888 96.9863C77.4128 96.723 77.8685 96.7129 78.5368 96.7838C78.7697 96.8141 79.0026 96.8546 79.2355 96.8951C79.4583 96.9356 79.6912 96.9863 79.9241 97.0065C80.7341 97.0875 81.1999 97.5128 81.3012 98.2419C81.3518 98.5862 81.5037 98.7988 81.8075 98.9304C82.1416 99.0722 82.3948 99.1026 82.5568 99.0216C82.7289 98.9304 82.8606 98.7077 82.9416 98.333C83.1137 97.6039 83.0428 96.8951 82.7289 96.2167C82.5467 95.8218 82.3543 95.5889 82.1416 95.518C81.9087 95.437 81.5746 95.518 81.1189 95.7408C80.4506 96.0749 78.0204 95.8927 77.4229 95.356C77.028 95.0016 76.9065 94.4852 77.0888 93.9586C77.4634 92.865 77.6255 91.6904 77.7774 90.5664C77.8887 89.7361 78.0001 88.8754 78.2026 88.0349C78.4254 87.0831 79.0026 86.6983 79.9342 86.8401C80.1164 86.8705 80.2886 86.911 80.4709 86.9515C80.6936 87.0021 80.9063 87.0628 81.129 87.073C82.091 87.1337 82.6783 87.6198 82.891 88.521C82.9315 88.7032 83.0428 88.9058 83.1846 89.0374C83.5694 89.4222 83.9542 89.4526 84.4402 89.1285C84.8959 88.8248 84.9972 88.5109 84.7845 88.0754L84.5516 87.5995C84.3592 87.2046 84.1567 86.7894 83.9339 86.3945C83.3669 85.4224 83.3061 85.3921 82.1923 85.7161C81.4227 85.9389 80.7544 85.7465 80.1063 85.5642C79.9342 85.5136 79.762 85.4629 79.5798 85.4224C79.2355 85.3414 79.0532 85.149 78.952 84.9972C78.7899 84.7339 78.7697 84.3896 78.871 83.9846C79.2861 82.3138 79.276 80.562 78.8406 78.7697C78.7798 78.5166 78.7697 78.2533 78.7798 78.0508C78.7798 76.9268 78.8608 76.2888 79.2962 75.9344C79.7722 75.5395 80.5215 75.6712 81.4531 75.8838C82.0809 76.0256 82.6986 76.1775 83.3264 76.3192C85.3921 76.8053 87.5286 77.3217 89.6753 77.5951C90.8601 77.747 91.9435 78.2634 92.9966 78.7596L93.1587 78.8305C93.9282 79.195 94.6776 79.4583 95.437 79.6304C102.171 81.1797 109.127 82.172 116.712 82.6479C119.314 82.81 121.987 82.8201 124.569 82.8302C125.754 82.8302 126.929 82.8302 128.103 82.8606C128.822 82.8707 129.541 82.8808 130.26 82.8808C134.229 82.9112 138.341 82.9416 142.33 83.8833C143.758 84.2175 145.176 84.6326 146.553 85.0377L147.16 85.2199C148.699 85.6756 150.441 85.9692 152.628 86.1515C153.985 86.2629 155.302 86.5667 156.577 86.8603C157.013 86.9616 157.438 87.0628 157.874 87.154C159.797 87.5691 160.172 88.1362 159.878 90.2323C159.696 91.5081 159.494 92.946 159.251 94.3535C159.089 95.2649 158.896 96.1964 158.704 97.0875L158.451 98.2925C158.198 100.368 157.732 102.464 157.276 104.49C156.76 106.808 156.223 109.208 156.01 111.598C155.798 113.947 155.362 116.276 154.937 118.524C154.664 119.982 154.38 121.491 154.167 122.98C153.398 128.245 152.699 134.037 152.021 139.627C151.565 143.404 151.089 147.312 150.613 150.917C150.127 154.583 149.783 158.319 149.449 161.934L149.236 164.273L148.74 164.233C148.588 164.223 148.426 164.223 148.274 164.233L147.677 164.273L147.707 164.344ZM69.3424 150.725C69.3931 150.745 69.4437 150.765 69.5045 150.775C69.707 150.826 69.9196 150.866 70.1221 150.917C70.7094 151.039 71.3879 151.19 71.9752 151.464C73.1397 152.021 74.3953 152.395 75.8129 152.618C76.8863 152.79 78.0811 152.871 79.438 152.871C84.1466 152.881 88.7741 153.236 93.5029 153.621C97.928 153.985 102.333 154.897 106.606 155.788C108.631 156.203 110.697 156.638 112.742 157.003C113.846 157.205 114.94 157.398 116.043 157.59C120.418 158.36 124.934 159.149 129.329 160.203C133.338 161.164 137.055 161.651 140.69 161.711H141.368C143.282 161.742 145.247 161.762 147.14 162.42C147.353 162.491 147.596 162.511 147.859 162.531L147.95 161.458C148.203 158.511 148.467 155.484 148.851 152.517C149.206 149.783 149.54 146.998 149.894 144.042C150.694 137.389 151.535 130.503 152.537 124.255C152.79 122.676 153.054 121.106 153.327 119.527C154.137 114.707 154.978 109.745 155.453 104.824C155.504 104.297 155.605 103.517 155.919 102.849C156.314 101.999 156.456 101.057 156.608 100.156C156.658 99.8418 156.709 99.5279 156.77 99.214C156.982 98.1001 157.236 96.7838 157.448 95.4471C157.732 93.746 158.046 91.8119 158.309 89.9285C158.397 89.2939 158.144 88.9091 157.55 88.7741C156.203 88.4703 154.765 88.1767 153.287 87.9843L152.264 87.8628C150.239 87.6198 148.163 87.3666 146.158 86.7692L145.702 86.6274C144.538 86.273 143.323 85.9186 142.128 85.6148C138.067 84.6124 133.835 84.5921 129.744 84.5617H128.691C121.451 84.501 114.929 84.3896 108.378 83.5188C103.912 82.9213 99.5481 82.1821 95.4167 81.3113C94.4244 81.1088 93.5333 80.8151 92.6726 80.4202C91.3461 79.8127 90.0399 79.2456 88.6324 79.0937C86.2325 78.8203 83.9542 78.2128 81.5543 77.5647L80.8961 77.3926C80.8658 77.4635 80.8354 77.5343 80.8354 77.5647C80.8354 78.2026 80.8658 78.8507 80.8961 79.4785C80.967 80.9063 81.0379 82.3745 80.7443 83.8327C80.7645 83.9542 80.8455 83.9947 81.0278 84.0352C81.3113 84.0858 81.605 84.1162 81.8885 83.9947C83.4074 83.3061 84.6731 84.2681 85.3617 85.4022C85.7363 86.0199 86.0908 86.6983 86.4047 87.4071C87.0325 88.8146 86.7186 89.8171 85.3718 90.6677C84.0959 91.4676 82.6783 91.2449 81.8379 90.0905C81.605 89.7766 81.4531 89.4222 81.3518 89.1792C81.1594 88.7134 80.8151 88.6526 80.1367 88.6526H79.9241C79.7519 88.6526 79.6405 88.6729 79.5595 89.3311C79.5494 89.4222 79.5393 89.5032 79.5291 89.5741C79.4481 90.0804 79.4076 90.5968 79.3671 91.1031C79.3165 91.7917 79.2557 92.5308 79.0937 93.2498C78.9823 93.7257 79.0228 93.8675 79.0634 93.9181C79.1545 94.0396 79.6304 94.0801 79.7823 94.0902C80.0658 94.1105 80.2481 94.0092 80.6025 93.8168C81.5543 93.2903 82.5062 93.4422 83.4378 94.2624C84.9972 95.6395 85.1187 98.1811 84.3288 99.8317C84.0251 100.47 83.4681 100.824 82.7593 100.824C82.0201 100.824 80.3088 100.844 79.6709 99.0013C79.519 98.576 79.2152 98.5355 78.5976 98.5558H78.4153C78.2431 98.5558 78.1621 98.5558 78.1621 99.1532V99.3456C78.1419 99.6393 78.1419 99.9329 78.1318 100.227C78.1115 101.32 78.0913 102.343 77.6963 103.396C77.6761 103.447 77.6761 103.517 77.6963 103.538C77.8685 103.538 78.0913 103.649 78.3039 103.75C78.8305 103.993 79.1039 104.085 79.3874 103.892C80.157 103.345 80.8253 103.305 81.6252 103.75C82.4252 104.196 82.9517 104.753 83.2656 105.482C83.8529 106.849 83.4985 108.226 82.3036 109.148C81.0683 110.109 79.8228 110.059 78.6178 108.986C78.5469 108.925 78.476 108.844 78.4153 108.773C78.3343 108.682 78.2837 108.611 78.2229 108.57C77.8685 108.348 77.5343 108.287 77.2812 108.398C77.0382 108.499 76.8559 108.773 76.7648 109.158C76.5217 110.201 76.2787 111.314 76.0559 112.428C76.0357 112.519 76.0053 112.631 75.9648 112.742C75.9344 112.843 75.8534 113.087 75.8838 113.157L76.0559 113.228C76.7648 113.522 76.9977 113.522 77.2002 113.198C78.0609 111.801 79.2456 112.307 79.9544 112.611C81.2607 113.168 82.0809 113.998 82.3948 115.071C82.7188 116.205 82.4252 117.552 81.5645 118.868C81.0582 119.638 80.238 120.073 79.3469 120.023C78.3647 119.982 77.4432 119.395 76.947 118.484C76.6129 117.866 76.2382 117.734 75.2661 117.866C74.7801 117.937 74.6991 118.18 74.6181 118.818L74.5978 118.98C74.4358 120.144 74.3042 121.329 74.1725 122.473L74.0409 123.577C73.9599 124.164 74.0409 124.174 74.2232 124.205L74.4054 124.235C74.9421 124.336 75.1952 124.367 75.4585 123.881C75.7522 123.334 76.1167 123.01 76.5521 122.909C77.028 122.797 77.5546 122.959 78.152 123.395C79.1241 124.104 79.6912 125.238 79.7215 126.524C79.7519 127.81 79.2254 128.994 78.2735 129.774C77.6558 130.28 76.9166 130.483 76.2382 130.351C75.6307 130.22 75.1244 129.825 74.8104 129.217C74.5067 128.63 74.1725 128.559 73.4941 128.62C73.2106 128.64 73.1295 128.751 73.0182 129.278C72.9979 129.369 72.9777 129.46 72.9574 129.551C72.7549 130.321 72.7549 131.151 72.765 131.941C72.765 132.711 72.7751 133.5 72.603 134.29C72.8258 134.351 73.0182 134.402 73.2207 134.462C73.7371 134.614 73.9599 134.645 74.2029 134.321C74.4864 133.956 74.8611 133.875 75.1244 133.855C76.4509 133.723 78.1925 135.11 78.3444 136.417C78.5571 138.209 77.3419 140.265 75.9344 140.487C75.3471 140.578 74.7699 140.416 74.2029 140.011C74.0206 139.88 73.8384 139.718 73.6662 139.566C73.5245 139.434 73.3827 139.313 73.2409 139.201C72.765 138.837 72.2081 138.958 71.6107 139.08L71.4284 139.12C71.2056 139.161 71.1449 139.242 71.1347 139.778C71.1347 139.9 71.1347 140.032 71.1145 140.143C71.0132 140.913 70.9423 141.702 70.8613 142.462L70.7398 143.636C70.7094 143.95 70.7196 144.082 70.8613 144.173C71.3575 144.528 72.2587 144.366 72.6638 143.839C73.1194 143.252 73.6257 142.938 74.1624 142.918C74.6991 142.887 75.2054 143.161 75.6712 143.687C76.38 144.497 76.6635 145.662 76.4407 146.796C76.2078 147.94 75.4788 148.912 74.4965 149.378C73.0688 150.056 72.2587 149.449 71.8334 148.811C71.479 148.284 71.0639 148.244 70.4867 148.183L70.1829 148.153C69.8386 148.102 69.7272 148.122 69.626 148.76C69.545 149.327 69.4741 149.702 69.4234 150.036C69.3829 150.299 69.3424 150.522 69.3121 150.755L69.3424 150.725Z" fill="#222221"/>
<path d="M96.6622 102.667C96.7027 102.302 96.8648 101.988 97.1584 101.725C97.4521 101.472 97.766 101.361 98.1305 101.391C98.3634 101.421 99.6595 102.039 101.999 103.264C102.069 101.877 102.13 100.925 102.191 100.399C102.232 100.014 102.394 99.7101 102.677 99.4874C102.961 99.2646 103.285 99.1735 103.659 99.214C104.044 99.2545 104.348 99.4165 104.581 99.6899C104.803 99.9633 104.895 100.297 104.854 100.682C104.793 101.229 104.733 102.069 104.672 103.204C107.092 103.102 108.56 103.082 109.097 103.143C109.461 103.183 109.755 103.345 109.968 103.639C110.18 103.933 110.272 104.257 110.231 104.631C110.16 105.33 109.735 105.715 108.975 105.786C108.267 105.857 107.021 105.907 105.249 105.927C105.765 106.515 106.322 107.254 106.9 108.155C107.659 109.34 108.024 110.15 107.973 110.575C107.932 110.93 107.76 111.223 107.456 111.456C107.153 111.689 106.819 111.78 106.464 111.75C106.089 111.709 105.765 111.497 105.492 111.102C104.976 110.221 104.115 108.955 102.91 107.294C100.621 109.38 99.1127 110.383 98.3938 110.302C98.0394 110.261 97.7356 110.089 97.4926 109.785C97.2495 109.482 97.1483 109.148 97.1888 108.793C97.2293 108.459 97.4217 108.145 97.766 107.862C98.4545 107.396 99.4671 106.636 100.804 105.593C100.024 105.249 98.8798 104.692 97.3812 103.912C96.8445 103.609 96.6015 103.183 96.6622 102.667ZM112.783 104.409C112.823 104.044 112.985 103.73 113.279 103.467C113.573 103.214 113.886 103.102 114.251 103.133C114.484 103.163 115.78 103.781 118.119 105.006C118.19 103.619 118.251 102.667 118.311 102.14C118.352 101.756 118.514 101.452 118.798 101.229C119.081 101.006 119.405 100.915 119.78 100.956C120.165 100.996 120.468 101.158 120.701 101.432C120.924 101.705 121.015 102.039 120.975 102.424C120.914 102.971 120.853 103.811 120.792 104.945C123.212 104.844 124.681 104.824 125.217 104.885C125.582 104.925 125.876 105.087 126.088 105.381C126.301 105.674 126.392 105.998 126.352 106.383C126.281 107.082 125.855 107.467 125.096 107.537C124.387 107.608 123.142 107.659 121.37 107.679C121.886 108.267 122.443 109.006 123.02 109.907C123.78 111.092 124.144 111.902 124.093 112.327C124.053 112.681 123.881 112.975 123.577 113.208C123.273 113.441 122.939 113.532 122.585 113.502C122.21 113.461 121.886 113.249 121.623 112.854C121.106 111.973 120.246 110.707 119.041 109.046C116.752 111.132 115.243 112.135 114.524 112.054C114.17 112.013 113.866 111.841 113.623 111.537C113.38 111.233 113.279 110.899 113.319 110.545C113.36 110.211 113.552 109.897 113.897 109.613C114.585 109.148 115.598 108.388 116.934 107.345C116.155 107.001 115.01 106.444 113.512 105.664C112.975 105.36 112.732 104.935 112.793 104.419L112.783 104.409ZM128.903 106.15C128.944 105.786 129.106 105.472 129.399 105.209C129.693 104.945 130.007 104.834 130.372 104.874C130.615 104.905 131.901 105.522 134.24 106.748C134.31 105.36 134.371 104.409 134.432 103.882C134.473 103.497 134.635 103.193 134.918 102.971C135.202 102.748 135.526 102.657 135.9 102.697C136.285 102.738 136.589 102.9 136.822 103.173C137.044 103.447 137.136 103.781 137.095 104.166C137.034 104.712 136.974 105.553 136.913 106.687C139.333 106.586 140.801 106.565 141.338 106.626C141.702 106.667 141.996 106.829 142.209 107.122C142.421 107.416 142.513 107.74 142.472 108.125C142.401 108.823 141.976 109.208 141.216 109.279C140.508 109.35 139.262 109.401 137.49 109.411C138.006 109.998 138.563 110.737 139.141 111.639C139.9 112.823 140.265 113.623 140.214 114.059C140.173 114.413 140.001 114.707 139.698 114.94C139.394 115.172 139.06 115.274 138.705 115.233C138.33 115.193 138.006 114.98 137.733 114.585C137.217 113.704 136.356 112.438 135.151 110.778C132.862 112.864 131.354 113.866 130.635 113.785C130.28 113.745 129.977 113.573 129.734 113.269C129.491 112.965 129.389 112.631 129.43 112.276C129.47 111.942 129.663 111.628 130.007 111.345C130.696 110.879 131.708 110.12 133.045 109.077C132.265 108.732 131.121 108.175 129.622 107.396C129.086 107.092 128.842 106.667 128.903 106.15ZM114.008 147.626C113.967 147.98 113.795 148.274 113.481 148.507C113.168 148.74 112.833 148.831 112.479 148.801C112.084 148.76 111.709 148.456 111.375 147.899C111.041 147.373 110.899 146.907 110.94 146.502C110.98 146.148 111.152 145.854 111.466 145.631C111.78 145.409 112.114 145.307 112.479 145.348C112.864 145.388 113.238 145.692 113.583 146.249C113.907 146.776 114.048 147.231 114.008 147.636V147.626ZM116.398 125.45L114.605 141.986C114.514 142.867 114.018 143.262 113.137 143.161C112.256 143.069 111.861 142.573 111.963 141.692C112.003 141.287 112.064 140.68 112.125 139.87C112.185 139.06 112.236 138.452 112.287 138.057C112.438 136.619 112.692 134.473 113.026 131.607C113.36 128.741 113.603 126.595 113.765 125.157C113.856 124.276 114.352 123.881 115.233 123.982C116.114 124.083 116.509 124.569 116.408 125.45H116.398Z" fill="black"/>
</g>
<defs>
<clipPath id="clip0_1_2">
<rect width="160" height="172.151" fill="white"/>
</clipPath>
</defs>
</svg>
